# xmcd
#
# Track frame offsets: 
#        150
#        11931
#        21543
#        37609
#        54837
#        72604
#        88369
#        102610
#        116410
#        130038
#        141952
#        154750
#        172675
#        186808
#        204513
#        221394
#        235338
#        251778
#        268223
#        287965
#
# Disc length: 4032 seconds
#
# Revision: 2
# Processed by: cddbd v1.5.2PL0 Copyright (c) Steve Scherf et al.
# Submitted via: ExactAudioCopy v0.99pb5
#
DISCID=2c0fbe14
DTITLE=Cats - The Cats - 100 - CD 2
DYEAR=2008
DGENRE=Pop
TTITLE0=Sure he's a cat
TTITLE1=Vive l 'amour
TTITLE2=What is the world coming to
TTITLE3=The best years of my life
TTITLE4=Those were the days
TTITLE5=La diligence
TTITLE6=Save the last dance for me
TTITLE7=Turn around and start again
TTITLE8=Like a Spanish song
TTITLE9=Don't waste my time
TTITLE10=Love is a golden ring
TTITLE11=Love like yours
TTITLE12=How did you feel
TTITLE13=Stay in my life
TTITLE14=She was too young
TTITLE15=Romance
TTITLE16=Somewhere over the rainbow
TTITLE17=Lovers don't talk
TTITLE18=Sunday mornings
TTITLE19=Canciòn de la sierra
EXTD=
EXTT0=
EXTT1=
EXTT2=
EXTT3=
EXTT4=
EXTT5=
EXTT6=
EXTT7=
EXTT8=
EXTT9=
EXTT10=
EXTT11=
EXTT12=
EXTT13=
EXTT14=
EXTT15=
EXTT16=
EXTT17=
EXTT18=
EXTT19=
PLAYORDER=
